<svg width="108" height="41" viewBox="0 0 108 41" fill="none" xmlns="http://www.w3.org/2000/svg">
<path d="M17.5506 0.333402C17.337 0.333577 17.1118 0.333761 16.9008 0.358945C14.4473 0.563609 12.1927 1.60584 10.5871 3.50455C8.83974 5.57084 8.41719 7.74786 8.43766 10.3784L3.76334 10.3713C3.55396 10.3711 3.33752 10.3651 3.11803 10.359C2.50817 10.3421 1.87472 10.3246 1.30343 10.4293C0.9589 10.4924 0.658272 10.66 0.41598 10.9122C-0.00822495 11.3538 -0.0185329 11.9116 0.00903202 12.4831C0.0525083 13.3841 0.129893 14.2863 0.207189 15.1875C0.249238 15.6777 0.291298 16.168 0.327841 16.6576L1.10367 26.6823L1.48116 31.5233C1.49975 31.7623 1.5146 32.0037 1.52952 32.246C1.58283 33.1124 1.63692 33.9915 1.86565 34.8203C2.26078 36.2297 3.0439 37.4995 4.12575 38.4858C5.07124 39.3443 6.21406 39.9569 7.45289 40.2685C8.5007 40.5214 9.71804 40.4928 10.8615 40.4659C11.2019 40.4579 11.5356 40.45 11.8565 40.4498L18.1492 40.4479L23.645 40.4503C23.9453 40.4503 24.2543 40.4577 24.5672 40.4651C25.5823 40.4892 26.6404 40.5144 27.589 40.2933C28.9235 39.9826 30.274 39.25 31.2482 38.2841C32.1549 37.3847 32.8792 36.184 33.1957 34.9433C33.4379 33.9942 33.4987 32.9532 33.5576 31.9433C33.5766 31.6178 33.5954 31.2953 33.6201 30.9803L34.1359 24.3409L34.779 16.1888C34.8102 15.7861 34.8504 15.3792 34.8908 14.9714C34.9783 14.0874 35.0664 13.1969 35.0644 12.3233C35.0634 11.786 34.9497 11.2847 34.5647 10.8857C34.2997 10.6107 33.8666 10.4765 33.5 10.4167C32.9506 10.3271 32.3481 10.3431 31.7653 10.3585C31.5498 10.3642 31.337 10.3699 31.1306 10.3701C29.6605 10.3672 28.1899 10.3724 26.7198 10.3856L26.6566 10.3865C26.6911 7.56945 26.064 5.15213 24.0388 3.09182C22.3465 1.33842 20.0179 0.343583 17.5814 0.333374L17.5506 0.333402ZM26.4597 16.402L26.539 16.4065C26.5411 16.4119 26.543 16.4169 26.5449 16.4216C26.5459 16.424 26.5469 16.4264 26.5478 16.4286C26.5513 16.437 26.5544 16.4443 26.5571 16.4506L26.5605 16.4582C26.575 16.4911 26.5776 16.4971 26.5769 16.5501C26.5516 20.0044 25.627 24.4518 23.1754 26.9816C20.9051 29.3243 17.3796 30.4739 14.1646 30.5376C15.6621 27.7211 18.0685 25.05 20.5507 23.0661C20.9346 22.7596 21.3364 22.4825 21.7386 22.2052C21.9975 22.0267 22.2565 21.8481 22.5108 21.6615C22.7578 21.4803 23.0903 21.2344 23.1253 20.9039C23.1574 20.5996 22.9955 20.3634 22.805 20.146C22.5381 19.9912 22.3426 19.9267 22.0378 20.0161C21.6051 20.1431 21.169 20.4633 20.7755 20.7522C20.6713 20.8288 20.5699 20.9032 20.4725 20.9712C17.2897 23.2249 14.6451 26.1548 12.728 29.5507C12.6633 26.7878 13.2925 24.4733 14.987 22.2509C17.5299 18.9156 22.3971 16.9555 26.4597 16.402ZM1.75276 12.1016L33.3299 12.1011C33.2178 13.1646 33.1452 14.2378 33.0727 15.3093C33.0323 15.9063 32.992 16.5033 32.9448 17.0975L32.0946 27.7522L31.7766 31.6784C31.7625 31.8489 31.7496 32.0202 31.7366 32.192C31.6856 32.8693 31.6341 33.5529 31.5034 34.2161C31.3693 34.8967 31.1087 35.4883 30.7557 36.0819C30.6196 36.2885 30.4718 36.4873 30.3134 36.6774C29.398 37.7712 27.8953 38.586 26.468 38.6939C25.6908 38.7526 24.8911 38.7379 24.0989 38.7233C23.7561 38.717 23.4145 38.7107 23.0767 38.7104L16.5255 38.7085L11.3123 38.7109C11.0609 38.711 10.805 38.7163 10.5471 38.7217C9.75651 38.738 8.94698 38.7548 8.1871 38.6239C7.19041 38.4499 6.25897 38.0109 5.49092 37.3526C4.57091 36.5768 3.91063 35.5379 3.59911 34.3755C3.38601 33.6051 3.33287 32.7842 3.28069 31.9781C3.26758 31.7757 3.25454 31.5742 3.23903 31.3746L2.92897 27.3797L1.75276 12.1016ZM27.1609 14.5507L27.1374 14.5532C22.3441 15.1077 16.8872 17.0792 13.7889 20.962C11.7975 23.4575 10.7095 26.7034 11.0688 29.8997C11.1477 30.6016 11.3067 31.2725 11.5358 31.94C11.5099 32.0063 11.4783 32.0857 11.4423 32.1762C11.0489 33.1649 10.1346 35.463 10.4526 36.1426C10.5445 36.339 10.7319 36.4708 10.9351 36.5354C11.0188 36.5617 11.1031 36.5768 11.1902 36.587C11.4587 36.5427 11.7069 36.4873 11.8686 36.2472C12.0422 35.9887 12.2199 35.3681 12.3719 34.8372C12.4443 34.5844 12.511 34.3518 12.5685 34.1884C12.7655 33.6289 12.9891 33.0787 13.2124 32.5292L13.215 32.5228C13.2411 32.4585 13.2673 32.3942 13.2934 32.3299C17.246 32.3415 21.4676 31.1043 24.3271 28.2829C27.5249 25.1271 28.3304 20.0383 28.3367 15.7318C28.3372 15.3922 28.3139 14.9893 28.0655 14.7296C27.9128 14.5699 27.6829 14.5218 27.4695 14.5265C27.3665 14.5287 27.2635 14.5397 27.1609 14.5507ZM17.1663 2.06048C17.3194 2.051 17.473 2.04244 17.6261 2.04351C19.5036 2.05669 21.3835 2.89639 22.7029 4.21957C24.4992 6.02125 24.8667 7.93313 24.8706 10.3786L17.9917 10.3748L10.2512 10.3844C10.192 8.28242 10.5305 6.36251 11.9095 4.70274C13.2343 3.10825 15.1251 2.24283 17.1663 2.06048Z" fill="#030A06"/>
<path d="M26.539 16.4064L26.4598 16.4018C22.3971 16.9553 17.5299 18.9155 14.987 22.2507C13.2925 24.4731 12.6634 26.7877 12.728 29.5506C14.6451 26.1546 17.2898 23.2247 20.4725 20.971C20.5699 20.903 20.6713 20.8286 20.7755 20.7521C21.1691 20.4631 21.6052 20.1429 22.0379 20.0159C22.3427 19.9265 22.5381 19.991 22.805 20.1458C22.9956 20.3632 23.1575 20.5994 23.1254 20.9038C23.0904 21.2342 22.7578 21.4801 22.5109 21.6614C22.2565 21.8479 21.9975 22.0265 21.7386 22.205C21.3365 22.4823 20.9346 22.7594 20.5508 23.066C18.0686 25.0498 15.6622 27.7209 14.1647 30.5374C17.3797 30.4737 20.9052 29.3242 23.1754 26.9814C25.627 24.4516 26.5517 20.0043 26.5769 16.55C26.5777 16.497 26.575 16.4909 26.5605 16.458C26.557 16.4501 26.5528 16.4404 26.5478 16.4284C26.5452 16.4219 26.5422 16.4146 26.539 16.4064ZM27.1375 14.553L27.161 14.5505C27.2636 14.5396 27.3665 14.5286 27.4695 14.5263C27.6829 14.5216 27.9129 14.5697 28.0655 14.7295C28.3139 14.9892 28.3373 15.3921 28.3368 15.7316C28.3305 20.0381 27.5249 25.1269 24.3271 28.2828C21.4676 31.1041 17.246 32.3414 13.2934 32.3297C13.2673 32.394 13.2412 32.4583 13.2151 32.5226L13.2124 32.5291C12.9891 33.0785 12.7655 33.6288 12.5686 34.1882C12.511 34.3516 12.4444 34.5842 12.372 34.837C12.22 35.3679 12.0422 35.9885 11.8686 36.247C11.707 36.4871 11.4588 36.5426 11.1902 36.5868C11.1031 36.5766 11.0188 36.5615 10.9351 36.5353C10.732 36.4706 10.5446 36.3389 10.4526 36.1425C10.1346 35.4628 11.049 33.1647 11.4423 32.176C11.4783 32.0856 11.51 32.0061 11.5359 31.9398C11.3068 31.2723 11.1478 30.6015 11.0689 29.8996C10.7095 26.7033 11.7975 23.4574 13.7889 20.9619C16.8872 17.079 22.3442 15.1075 27.1375 14.553Z" fill="#030A06"/>
<path d="M27.161 14.5505L27.1375 14.553C22.3442 15.1075 16.8873 17.079 13.789 20.9619C11.7976 23.4574 10.7096 26.7033 11.069 29.8996C11.1479 30.6015 11.3068 31.2723 11.5359 31.9398C11.51 32.0061 11.4784 32.0856 11.4424 32.176C11.049 33.1647 10.1347 35.4628 10.4527 36.1425C10.5447 36.3389 10.732 36.4706 10.9352 36.5353C11.0189 36.5615 11.1032 36.5766 11.1903 36.5868C11.4588 36.5426 11.7071 36.4871 11.8687 36.247C12.0423 35.9885 12.2199 35.3682 12.3719 34.8374C12.4444 34.5844 12.511 34.3517 12.5686 34.1882C12.7656 33.6287 12.9892 33.0786 13.2125 32.5291C13.2134 32.5269 13.2142 32.5248 13.2151 32.5226C13.2413 32.4583 13.2674 32.394 13.2935 32.3297C17.2461 32.3414 21.4677 31.1041 24.3272 28.2828C27.525 25.1269 28.3305 20.0381 28.3368 15.7316C28.3373 15.3921 28.314 14.9892 28.0656 14.7295C27.9129 14.5697 27.683 14.5216 27.4696 14.5263C27.3666 14.5286 27.2636 14.5396 27.161 14.5505ZM26.4598 16.4018L26.5391 16.4064C26.5423 16.4146 26.5452 16.4219 26.5479 16.4284C26.5529 16.4405 26.5571 16.45 26.5606 16.458C26.5751 16.4909 26.5777 16.497 26.577 16.55C26.5517 20.0043 25.6271 24.4516 23.1755 26.9814C20.9052 29.3242 17.3798 30.4737 14.1647 30.5374C15.6622 27.7209 18.0686 25.0498 20.5508 23.066C20.9347 22.7594 21.3366 22.4823 21.7387 22.205C21.9976 22.0265 22.2566 21.8479 22.5109 21.6614C22.7579 21.4801 23.0904 21.2342 23.1254 20.9038C23.1575 20.5994 22.9956 20.3632 22.8051 20.1458C22.5382 19.991 22.3427 19.9265 22.0379 20.0159C21.6052 20.1429 21.1691 20.4631 20.7756 20.7521C20.6714 20.8286 20.57 20.903 20.4726 20.971C17.2898 23.2247 14.6452 26.1546 12.7281 29.5506C12.6634 26.7877 13.2926 24.4731 14.9871 22.2507C17.53 18.9155 22.3972 16.9553 26.4598 16.4018Z" fill="#030A06"/>
<path d="M88.8805 26.2565C88.7607 22.8612 85.9116 20.2063 82.5169 20.3256C79.1211 20.4444 76.4651 23.2946 76.585 26.6898C76.7048 30.0856 79.555 32.7411 82.9502 32.6212C86.3455 32.5008 89.0004 29.6512 88.8805 26.2565ZM82.7306 22.1713C83.721 22.2115 84.5237 22.4496 85.2787 23.1183C86.1785 23.9145 86.6801 25.0649 86.7458 26.2565C86.8119 27.4491 86.4366 28.6581 85.6247 29.5465C84.8827 30.3584 83.9574 30.7218 82.8732 30.7761C81.8839 30.7658 81.0677 30.6117 80.2872 29.9625C79.3755 29.2043 78.8602 28.0816 78.7631 26.91C78.6628 25.6919 78.9817 24.4325 79.7904 23.498C80.5926 22.5716 81.5401 22.2527 82.7306 22.1713Z" fill="#030A06"/>
<path d="M71.7837 25.7471C71.379 22.3708 68.3112 19.9643 64.936 20.3754C61.5697 20.7855 59.171 23.8434 59.5746 27.2104C59.9782 30.5775 63.0317 32.9818 66.3994 32.5848C69.7761 32.1861 72.1884 29.1228 71.7837 25.7471ZM65.1329 22.2211C66.1178 22.1409 67.0101 22.2445 67.8417 22.8167C68.7757 23.4588 69.3629 24.4508 69.5572 25.5589C69.7776 26.8172 69.5703 28.1628 68.8133 29.2112C68.1506 30.1295 67.3225 30.5851 66.2193 30.7608C65.2116 30.8123 64.3213 30.751 63.4726 30.1506C62.5573 29.5057 61.9405 28.5192 61.7618 27.4138C61.5561 26.1946 61.8025 24.7914 62.5304 23.7772C63.17 22.8861 64.063 22.392 65.1329 22.2211Z" fill="#030A06"/>
<path d="M101.777 20.318C101.746 20.319 101.717 20.3212 101.686 20.325C100.138 20.5078 98.7432 21.2573 97.7697 22.4864C96.6589 23.8895 96.2776 25.6685 96.4967 27.4279C96.6762 28.9731 97.467 30.3822 98.6922 31.3417C100.144 32.4693 101.984 32.7556 103.777 32.5105C104.815 32.3684 106.374 31.8716 107.037 31.0081C107.224 30.7657 107.318 30.4695 107.275 30.1636C107.244 29.9489 107.15 29.7433 106.973 29.6115C106.77 29.4602 106.499 29.4412 106.257 29.4884C105.922 29.5538 105.621 29.7613 105.336 29.958C105.276 29.9995 105.216 30.0405 105.157 30.0796C103.905 30.7304 102.516 31.0363 101.138 30.5899C100.158 30.2672 99.3485 29.5638 98.8929 28.6374C98.6554 28.1639 98.5371 27.6611 98.4319 27.1453H104.342C104.588 27.1456 104.852 27.1541 105.123 27.1628C105.824 27.1853 106.574 27.2093 107.193 27.0987C107.369 27.0672 107.537 26.9729 107.665 26.8481C107.956 26.565 108.007 26.1642 107.999 25.7775C107.966 24.2968 107.27 22.8362 106.193 21.8344C104.95 20.6776 103.449 20.2426 101.777 20.318ZM101.959 22.168C102.856 22.0628 103.761 22.2917 104.5 22.8118C105.383 23.4399 105.848 24.3315 106.034 25.381C105.285 25.3901 104.534 25.388 103.784 25.386C103.41 25.3849 103.035 25.3839 102.66 25.3843L98.5035 25.3897C98.6939 24.7502 98.9146 24.1694 99.3236 23.6335C99.9825 22.7706 100.895 22.3079 101.959 22.168Z" fill="#030A06"/>
<path d="M68.8598 15.9228C71.0782 15.8702 73.3084 15.919 75.5283 15.9152C76.7926 15.913 78.4078 15.8105 79.6352 15.9369C79.8326 15.9575 79.9899 16.0134 80.1401 16.1446C80.3538 16.3312 80.4959 16.6127 80.5035 16.898C80.51 17.1556 80.3522 17.4512 80.1662 17.6242C80.0241 17.7555 79.8548 17.8081 79.6677 17.8384C79.1568 17.9209 78.5927 17.8726 78.0742 17.8721L75.3201 17.8672L75.319 28.0887C75.3228 28.95 75.4318 30.8288 75.3022 31.5615C75.2615 31.7915 75.178 32.0209 75.0196 32.1972C74.8493 32.3865 74.6145 32.4819 74.3617 32.4874C74.097 32.4933 73.8389 32.4353 73.6479 32.2428C73.4234 32.0177 73.341 31.6863 73.3133 31.3788C73.2623 30.8114 73.309 30.211 73.3155 29.641C73.3252 28.7976 73.3176 27.9537 73.3171 27.1103L73.3236 17.8656C72.4075 17.8699 69.2369 18.0158 68.5877 17.7213C68.3505 17.6139 68.2017 17.4479 68.1156 17.2012C68.0238 16.9386 68.0656 16.6588 68.1982 16.418C68.3535 16.1359 68.5607 16.015 68.8598 15.9228Z" fill="#030A06"/>
<path d="M54.3485 20.3263C55.1725 20.2796 55.9777 20.3322 56.7778 20.5465C57.6226 20.7726 58.9147 21.2711 59.3515 22.0727C59.4715 22.2934 59.5342 22.5576 59.4495 22.8016C59.3628 23.0506 59.1264 23.241 58.8881 23.3386C58.1933 23.6233 57.3234 22.666 56.6697 22.4198C55.6067 22.019 54.3283 22.0412 53.2942 22.5239C52.3441 22.9676 51.6609 23.8077 51.3072 24.7835C50.8966 25.9159 50.862 27.3928 51.3832 28.4966C51.8665 29.5195 52.7557 30.2343 53.8105 30.6069C55.0175 31.0338 56.275 30.8065 57.4029 30.2658C57.7524 30.0765 58.0698 29.8243 58.4681 29.7418C58.6739 29.6995 58.877 29.7218 59.0525 29.8433C59.2685 29.993 59.4431 30.2891 59.4717 30.5505C59.4987 30.7957 59.4033 31.0213 59.2512 31.2095C58.5913 32.0274 57.1225 32.4385 56.1229 32.5611C54.388 32.7737 52.5809 32.426 51.1925 31.3191C49.8874 30.2989 49.057 28.7889 48.8945 27.1406C48.7226 25.4983 49.2042 23.8544 50.2351 22.5646C51.2801 21.2797 52.7061 20.502 54.3485 20.3263Z" fill="#030A06"/>
<path d="M91.4029 17.2223C91.4377 17.2206 91.4718 17.219 91.506 17.2179C91.8135 17.2082 92.1227 17.2906 92.3402 17.5173C92.8587 18.0592 92.6526 19.8848 92.6466 20.6322C93.3528 20.6365 95.071 20.4168 95.6004 20.8876C95.7918 21.0585 95.8699 21.2949 95.8705 21.5471C95.8715 21.7918 95.8081 22.0261 95.6264 22.1985C95.1317 22.6671 93.3457 22.4827 92.6455 22.4784C92.652 23.9797 92.4492 28.6072 92.9118 29.7462C93.6597 31.5881 95.2809 29.968 96.2056 30.4035C96.4036 30.4968 96.5658 30.6937 96.639 30.8987C96.7431 31.1905 96.6504 31.4514 96.5305 31.7193C96.5099 31.7421 96.4893 31.7644 96.4687 31.7866C95.9101 32.3686 94.8606 32.5085 94.0899 32.5193C93.1955 32.5323 92.3499 32.3805 91.6893 31.7188C91.212 31.2404 90.9153 30.5841 90.77 29.9311C90.5454 28.9223 90.6382 27.8056 90.6387 26.7767L90.6414 22.48C90.0991 22.4795 89.5562 22.4757 89.0138 22.467C88.9243 22.4111 88.837 22.3537 88.7583 22.2826C88.5441 22.0895 88.4465 21.8015 88.4389 21.5179C88.4324 21.2803 88.505 21.046 88.6824 20.8817C89.1206 20.476 90.0844 20.6213 90.6414 20.6311C90.6398 19.8495 90.4684 18.448 90.7635 17.7603C90.8947 17.4549 91.109 17.3443 91.4029 17.2223Z" fill="#030A06"/>
<path fill-rule="evenodd" clip-rule="evenodd" d="M48.372 16.9295C47.4375 16.8376 42.8634 16.8702 41.2765 16.8935C40.9847 16.8978 40.7141 16.9177 40.4765 16.9352C40.2743 16.9501 40.0959 16.9632 39.9487 16.9635C39.9487 16.9635 39.3172 17.1117 39.1124 17.3962C38.9785 17.5824 38.9327 17.8188 38.9008 18.0413C38.7313 19.2229 38.6321 20.4285 38.5332 21.6301C38.4811 22.2625 38.4292 22.8938 38.3671 23.5199L37.7653 29.594C37.7493 29.7563 37.7215 29.978 37.69 30.2297C37.5881 31.0432 37.4469 32.1702 37.5382 32.6187C37.5887 32.8673 37.7205 33.0727 37.9403 33.2022C38.1572 33.3301 38.4029 33.4028 38.6499 33.4447L38.6521 33.4447C39.1624 33.4437 39.932 33.4516 40.7918 33.4605C42.5746 33.479 47.1078 33.5015 48.1619 33.4561C48.3721 33.4469 48.5949 33.429 48.793 33.3541C49.0591 33.2533 49.2777 33.0607 49.383 32.7928C49.4889 32.5232 49.4655 32.2211 49.3453 31.9608C49.2245 31.6983 49.0612 31.5583 48.7874 31.4705H39.6759C39.828 30.129 39.9639 28.7859 40.0837 27.4412L40.1913 26.3482L40.2017 26.2399C40.2729 26.2408 40.3666 26.2422 40.478 26.2439C41.406 26.2579 45.9229 26.2904 46.4984 26.2046C46.7096 26.1731 46.9069 26.12 47.0614 25.9643C47.2615 25.7626 47.3446 25.4838 47.328 25.2039C47.314 24.9664 47.2089 24.7076 47.0284 24.5476C46.9078 24.4413 46.7585 24.3725 46.5991 24.3502C46.0612 24.272 42.0455 24.2932 41.0317 24.3062C40.7598 24.3097 40.5338 24.3126 40.3879 24.3128L40.8497 18.8636H45.7667C46.0174 18.8637 46.2786 18.8721 46.5437 18.8806C47.1855 18.9012 47.8505 18.9225 48.4473 18.83C48.6595 18.7974 48.8416 18.7247 48.9955 18.5702C49.1841 18.3809 49.2872 18.0945 49.2728 17.8287C49.258 17.5576 49.112 17.2994 48.8999 17.1329C48.7383 17.006 48.5746 16.949 48.372 16.9295Z" fill="#030A06"/>
</svg>
